AC-Jade.ufo
<glyph name="exclam" format="2">
	<advance width="261"/>
	<unicode hex="0021"/>
	<outline>
		<contour>
			<point x="93" y="250" type="line"/>
			<point x="169" y="250" type="line"/>
			<point x="192" y="770" type="line"/>
			<point x="187" y="780" type="line"/>
			<point x="75" y="780" type="line"/>
			<point x="70" y="770" type="line"/>
		</contour>
		<contour>
			<point x="131" y="-10" type="curve" smooth="yes"/>
			<point x="172.33333" y="-10"/>
			<point x="201" y="22"/>
			<point x="201" y="62" type="curve" smooth="yes"/>
			<point x="201" y="103.33333"/>
			<point x="172.33333" y="130"/>
			<point x="131" y="130" type="curve" smooth="yes"/>
			<point x="89.66667" y="130"/>
			<point x="60" y="103.33333"/>
			<point x="60" y="62" type="curve" smooth="yes"/>
			<point x="60" y="22"/>
			<point x="87" y="-10"/>
		</contour>
	</outline>
</glyph>
<glyph name="hyphen" format="2">
	<advance width="390"/>
	<unicode hex="002D"/>
	<outline>
		<contour>
			<point x="35" y="305" type="line"/>
			<point x="39" y="305"/>
			<point x="157" y="307"/>
			<point x="197" y="307" type="curve" smooth="yes"/>
			<point x="236" y="307"/>
			<point x="352" y="305"/>
			<point x="355" y="305" type="curve"/>
			<point x="355" y="404" type="line"/>
			<point x="352" y="404"/>
			<point x="235" y="402"/>
			<point x="197" y="402" type="curve" smooth="yes"/>
			<point x="158" y="402"/>
			<point x="38" y="404"/>
			<point x="35" y="404" type="curve"/>
		</contour>
	</outline>
</glyph>
<glyph name="two" format="2">
	<advance width="571"/>
	<unicode hex="0032"/>
	<outline>
		<contour>
			<point x="92" y="0" type="curve" smooth="yes"/>
			<point x="462" y="0" type="line" smooth="yes"/>
			<point x="483" y="0"/>
			<point x="495" y="17"/>
			<point x="498" y="51" type="curve" smooth="yes"/>
			<point x="500" y="86"/>
			<point x="501" y="122"/>
			<point x="501" y="161" type="curve"/>
			<point x="434" y="168" type="line"/>
			<point x="415" y="65" type="line"/>
			<point x="480" y="90" type="line"/>
			<point x="135" y="90" type="line"/>
			<point x="143" y="62" type="line"/>
			<point x="215" y="128"/>
			<point x="471" y="311"/>
			<point x="471" y="548" type="curve" smooth="yes"/>
			<point x="471" y="645"/>
			<point x="381" y="711"/>
			<point x="275" y="711" type="curve" smooth="yes"/>
			<point x="213" y="711"/>
			<point x="145" y="689"/>
			<point x="86" y="638" type="curve"/>
			<point x="84" y="633" type="line"/>
			<point x="114" y="583" type="line"/>
			<point x="120" y="581" type="line"/>
			<point x="165" y="604"/>
			<point x="216" y="618"/>
			<point x="260" y="618" type="curve" smooth="yes"/>
			<point x="322" y="618"/>
			<point x="371" y="590"/>
			<point x="371" y="518" type="curve" smooth="yes"/>
			<point x="371" y="333"/>
			<point x="152" y="159"/>
			<point x="78" y="86" type="curve" smooth="yes"/>
			<point x="72" y="80"/>
			<point x="70" y="70"/>
			<point x="70" y="58" type="curve" smooth="yes"/>
			<point x="70" y="32"/>
			<point x="82" y="0"/>
		</contour>
	</outline>
</glyph>
<glyph name="four" format="2">
	<advance width="550"/>
	<unicode hex="0034"/>
	<outline>
		<contour>
			<point x="520" y="191" type="curve"/>
			<point x="520" y="283" type="line"/>
			<point x="516" y="283"/>
			<point x="461" y="279"/>
			<point x="355" y="275" type="curve" smooth="yes"/>
			<point x="250" y="271"/>
			<point x="172" y="269"/>
			<point x="101" y="271" type="curve"/>
			<point x="121" y="241" type="line"/>
			<point x="367" y="646" type="line"/>
			<point x="369" y="657" type="line"/>
			<point x="289" y="711" type="line"/>
			<point x="277" y="705" type="line"/>
			<point x="49" y="243" type="line" smooth="yes"/>
			<point x="42" y="229"/>
			<point x="42" y="196"/>
			<point x="77" y="196" type="curve" smooth="yes"/>
			<point x="171" y="194"/>
			<point x="480" y="191"/>
		</contour>
		<contour>
			<point x="346" y="0" type="line"/>
			<point x="440" y="0" type="line"/>
			<point x="445" y="10" type="line"/>
			<point x="444" y="23"/>
			<point x="442" y="58"/>
			<point x="440" y="104" type="curve" smooth="yes"/>
			<point x="437" y="166"/>
			<point x="435" y="221"/>
			<point x="435" y="269" type="curve" smooth="yes"/>
			<point x="435" y="363"/>
			<point x="442" y="469"/>
			<point x="445" y="508" type="curve"/>
			<point x="444" y="510"/>
			<point x="443" y="512"/>
			<point x="443" y="514" type="curve" smooth="yes"/>
			<point x="442" y="516"/>
			<point x="441" y="518"/>
			<point x="440" y="520" type="curve"/>
			<point x="351" y="520" type="line"/>
			<point x="349" y="515"/>
			<point x="348" y="513"/>
			<point x="346" y="509" type="curve"/>
			<point x="351" y="469"/>
			<point x="351" y="362"/>
			<point x="351" y="269" type="curve" smooth="yes"/>
			<point x="351" y="221"/>
			<point x="349" y="166"/>
			<point x="346" y="104" type="curve" smooth="yes"/>
			<point x="344" y="58"/>
			<point x="342" y="23"/>
			<point x="341" y="10" type="curve"/>
		</contour>
	</outline>
</glyph>
<glyph name="five" format="2">
	<advance width="594"/>
	<unicode hex="0035"/>
	<outline>
		<contour>
			<point x="271" y="-9" type="curve" smooth="yes"/>
			<point x="420" y="-9"/>
			<point x="524" y="84"/>
			<point x="524" y="216" type="curve" smooth="yes"/>
			<point x="524" y="347"/>
			<point x="420" y="440"/>
			<point x="271" y="441" type="curve" smooth="yes"/>
			<point x="147" y="442" type="line"/>
			<point x="215" y="422" type="line"/>
			<point x="238" y="647" type="line"/>
			<point x="192" y="619" type="line"/>
			<point x="210" y="619"/>
			<point x="238" y="620"/>
			<point x="258" y="620" type="curve" smooth="yes"/>
			<point x="332" y="620"/>
			<point x="414" y="617"/>
			<point x="482" y="611" type="curve"/>
			<point x="487" y="620" type="line"/>
			<point x="487" y="691" type="line"/>
			<point x="483" y="701" type="line"/>
			<point x="427" y="698"/>
			<point x="364" y="696"/>
			<point x="301" y="696" type="curve" smooth="yes"/>
			<point x="243" y="696"/>
			<point x="204" y="698"/>
			<point x="153" y="700" type="curve"/>
			<point x="147" y="690" type="line"/>
			<point x="119" y="373" type="line"/>
			<point x="131" y="363" type="line"/>
			<point x="257" y="361" type="line" smooth="yes"/>
			<point x="379" y="359"/>
			<point x="433" y="313"/>
			<point x="433" y="221" type="curve" smooth="yes"/>
			<point x="433" y="127"/>
			<point x="374" y="81"/>
			<point x="240" y="81" type="curve" smooth="yes"/>
			<point x="194" y="81"/>
			<point x="145" y="90"/>
			<point x="99" y="115" type="curve"/>
			<point x="94" y="112" type="line"/>
			<point x="70" y="42" type="line"/>
			<point x="72" y="35" type="line"/>
			<point x="137" y="4"/>
			<point x="201" y="-9"/>
		</contour>
	</outline>
</glyph>
<glyph name="nine" format="2">
	<advance width="580"/>
	<unicode hex="0039"/>
	<outline>
		<contour>
			<point x="255" y="-10" type="curve" smooth="yes"/>
			<point x="415" y="-10"/>
			<point x="505" y="146"/>
			<point x="505" y="395" type="curve" smooth="yes"/>
			<point x="505" y="597"/>
			<point x="426" y="710"/>
			<point x="285" y="710" type="curve" smooth="yes"/>
			<point x="144" y="710"/>
			<point x="65" y="626"/>
			<point x="65" y="475" type="curve" smooth="yes"/>
			<point x="65" y="324"/>
			<point x="148" y="240"/>
			<point x="291" y="240" type="curve" smooth="yes"/>
			<point x="354" y="240"/>
			<point x="425" y="273"/>
			<point x="462" y="320" type="curve"/>
			<point x="423" y="368" type="line"/>
			<point x="396" y="340"/>
			<point x="336" y="320"/>
			<point x="278" y="320" type="curve" smooth="yes"/>
			<point x="190" y="320"/>
			<point x="149" y="366"/>
			<point x="149" y="470" type="curve" smooth="yes"/>
			<point x="149" y="574"/>
			<point x="190" y="620"/>
			<point x="278" y="620" type="curve" smooth="yes"/>
			<point x="373" y="620"/>
			<point x="415" y="538"/>
			<point x="415" y="350" type="curve" smooth="yes"/>
			<point x="415" y="162"/>
			<point x="363" y="80"/>
			<point x="244" y="80" type="curve" smooth="yes"/>
			<point x="180" y="80"/>
			<point x="132" y="100"/>
			<point x="100" y="118" type="curve"/>
			<point x="94" y="116" type="line"/>
			<point x="66" y="48" type="line"/>
			<point x="69" y="41" type="line"/>
			<point x="114" y="23"/>
			<point x="174" y="-10"/>
		</contour>
	</outline>
</glyph>
<glyph name="question" format="2">
	<advance width="494"/>
	<unicode hex="003F"/>
	<outline>
		<contour>
			<point x="165" y="239" type="line"/>
			<point x="258" y="239" type="line"/>
			<point x="264" y="249" type="line"/>
			<point x="256" y="349" type="line"/>
			<point x="242" y="333" type="line"/>
			<point x="345" y="375"/>
			<point x="449" y="438"/>
			<point x="449" y="568" type="curve" smooth="yes"/>
			<point x="449" y="722"/>
			<point x="350" y="779"/>
			<point x="239" y="779" type="curve" smooth="yes"/>
			<point x="169" y="779"/>
			<point x="94" y="756"/>
			<point x="37" y="713" type="curve"/>
			<point x="35" y="706" type="line"/>
			<point x="62" y="655" type="line"/>
			<point x="67" y="652" type="line"/>
			<point x="103" y="678"/>
			<point x="161" y="694"/>
			<point x="216" y="694" type="curve" smooth="yes"/>
			<point x="291" y="694"/>
			<point x="360" y="664"/>
			<point x="360" y="567" type="curve" smooth="yes"/>
			<point x="360" y="476"/>
			<point x="286" y="423"/>
			<point x="175" y="391" type="curve"/>
			<point x="161" y="364" type="line"/>
			<point x="159" y="249" type="line"/>
		</contour>
		<contour>
			<point x="218" y="-10" type="curve" smooth="yes"/>
			<point x="259" y="-10"/>
			<point x="288" y="22"/>
			<point x="288" y="62" type="curve" smooth="yes"/>
			<point x="288" y="103"/>
			<point x="259" y="130"/>
			<point x="218" y="130" type="curve" smooth="yes"/>
			<point x="177" y="130"/>
			<point x="147" y="103"/>
			<point x="147" y="62" type="curve" smooth="yes"/>
			<point x="147" y="22"/>
			<point x="174" y="-10"/>
		</contour>
	</outline>
</glyph>
<glyph name="A" format="2">
	<advance width="591"/>
	<unicode hex="0041"/>
	<outline>
		<contour>
			<point x="467" y="0" type="line"/>
			<point x="474" y="0"/>
			<point x="558" y="0"/>
			<point x="565" y="0" type="curve"/>
			<point x="571" y="10" type="line"/>
			<point x="486" y="227"/>
			<point x="420" y="473"/>
			<point x="363" y="690" type="curve"/>
			<point x="357" y="700" type="line"/>
			<point x="229" y="700" type="line"/>
			<point x="223" y="690" type="line"/>
			<point x="178" y="500"/>
			<point x="98" y="228"/>
			<point x="20" y="13" type="curve"/>
			<point x="25" y="3" type="line"/>
			<point x="32" y="3"/>
			<point x="105" y="3"/>
			<point x="112" y="3" type="curve"/>
			<point x="118" y="13" type="line"/>
			<point x="159" y="201"/>
			<point x="253" y="476"/>
			<point x="300" y="660" type="curve"/>
			<point x="272" y="660" type="line"/>
			<point x="328" y="469"/>
			<point x="412" y="227"/>
			<point x="460" y="8" type="curve"/>
		</contour>
		<contour>
			<point x="136" y="191" type="line"/>
			<point x="141" y="191"/>
			<point x="230" y="193"/>
			<point x="271" y="193" type="curve" smooth="yes"/>
			<point x="312" y="193"/>
			<point x="417" y="192"/>
			<point x="422" y="191" type="curve"/>
			<point x="422" y="280" type="line"/>
			<point x="418" y="280"/>
			<point x="311" y="278"/>
			<point x="271" y="278" type="curve" smooth="yes"/>
			<point x="231" y="278"/>
			<point x="135" y="280"/>
			<point x="131" y="280" type="curve"/>
		</contour>
	</outline>
</glyph>
<glyph name="D" format="2">
	<advance width="695"/>
	<unicode hex="0044"/>
	<outline>
		<contour>
			<point x="90" y="0" type="line"/>
			<point x="328" y="0" type="line" smooth="yes"/>
			<point x="711" y="0"/>
			<point x="722" y="700"/>
			<point x="331" y="700" type="curve" smooth="yes"/>
			<point x="90" y="700" type="line"/>
			<point x="85" y="691" type="line"/>
			<point x="89" y="592"/>
			<point x="92" y="449"/>
			<point x="92" y="337" type="curve" smooth="yes"/>
			<point x="92" y="227"/>
			<point x="89" y="111"/>
			<point x="85" y="12" type="curve"/>
		</contour>
		<contour>
			<point x="187" y="66" type="line"/>
			<point x="187" y="129"/>
			<point x="182" y="231"/>
			<point x="182" y="339" type="curve" smooth="yes"/>
			<point x="182" y="451"/>
			<point x="184" y="569"/>
			<point x="187" y="636" type="curve"/>
			<point x="158" y="619" type="line"/>
			<point x="180" y="620"/>
			<point x="228" y="621"/>
			<point x="313" y="621" type="curve" smooth="yes"/>
			<point x="593" y="621"/>
			<point x="592" y="85"/>
			<point x="300" y="85" type="curve" smooth="yes"/>
			<point x="148" y="85" type="line"/>
		</contour>
	</outline>
</glyph>
<glyph name="G" format="2">
	<advance width="662"/>
	<unicode hex="0047"/>
	<outline>
		<contour>
			<point x="376" y="-10" type="curve" smooth="yes"/>
			<point x="435" y="-10"/>
			<point x="514" y="-3"/>
			<point x="586" y="48" type="curve"/>
			<point x="587" y="53" type="line"/>
			<point x="585" y="115"/>
			<point x="582" y="156"/>
			<point x="582" y="249" type="curve" smooth="yes"/>
			<point x="582" y="295"/>
			<point x="585" y="335"/>
			<point x="587" y="381" type="curve"/>
			<point x="582" y="386" type="line"/>
			<point x="563" y="385"/>
			<point x="529" y="384"/>
			<point x="490" y="384" type="curve" smooth="yes"/>
			<point x="430" y="384"/>
			<point x="384" y="385"/>
			<point x="365" y="386" type="curve"/>
			<point x="360" y="381" type="line"/>
			<point x="360" y="311" type="line"/>
			<point x="365" y="306" type="line"/>
			<point x="509" y="306" type="line"/>
			<point x="483" y="345" type="line"/>
			<point x="491" y="316"/>
			<point x="493" y="274"/>
			<point x="493" y="221" type="curve" smooth="yes"/>
			<point x="493" y="128"/>
			<point x="488" y="114"/>
			<point x="479" y="43" type="curve"/>
			<point x="537" y="114" type="line"/>
			<point x="500" y="93"/>
			<point x="453" y="80"/>
			<point x="382" y="80" type="curve" smooth="yes"/>
			<point x="258" y="79"/>
			<point x="175" y="134"/>
			<point x="175" y="350" type="curve" smooth="yes"/>
			<point x="175" y="558"/>
			<point x="250" y="620"/>
			<point x="374" y="620" type="curve" smooth="yes"/>
			<point x="447" y="620"/>
			<point x="493" y="604"/>
			<point x="546" y="585" type="curve"/>
			<point x="550" y="587" type="line"/>
			<point x="574" y="675" type="line"/>
			<point x="571" y="680" type="line"/>
			<point x="522" y="693"/>
			<point x="456" y="710"/>
			<point x="376" y="710" type="curve" smooth="yes"/>
			<point x="225" y="710"/>
			<point x="75" y="629"/>
			<point x="75" y="350" type="curve" smooth="yes"/>
			<point x="75" y="72"/>
			<point x="221" y="-10"/>
		</contour>
	</outline>
</glyph>
<glyph name="H" format="2">
	<advance width="679"/>
	<unicode hex="0048"/>
	<outline>
		<contour>
			<point x="494" y="0" type="curve"/>
			<point x="589" y="0" type="line"/>
			<point x="589" y="1"/>
			<point x="590" y="3"/>
			<point x="592" y="5" type="curve" smooth="yes"/>
			<point x="593" y="7"/>
			<point x="594" y="9"/>
			<point x="594" y="12" type="curve" smooth="yes"/>
			<point x="593" y="81"/>
			<point x="584" y="278"/>
			<point x="584" y="352" type="curve" smooth="yes"/>
			<point x="584" y="449"/>
			<point x="590" y="597"/>
			<point x="594" y="690" type="curve"/>
			<point x="589" y="700" type="line"/>
			<point x="489" y="700" type="line"/>
			<point x="484" y="690" type="line"/>
			<point x="488" y="597"/>
			<point x="494" y="449"/>
			<point x="494" y="352" type="curve" smooth="yes"/>
			<point x="494" y="289"/>
			<point x="488" y="74"/>
			<point x="489" y="11" type="curve"/>
			<point x="490" y="9"/>
			<point x="491" y="7"/>
			<point x="492" y="5" type="curve" smooth="yes"/>
			<point x="493" y="3"/>
			<point x="493" y="1"/>
		</contour>
		<contour>
			<point x="95" y="0" type="curve"/>
			<point x="190" y="0" type="line"/>
			<point x="190" y="1"/>
			<point x="191" y="3"/>
			<point x="193" y="5" type="curve" smooth="yes"/>
			<point x="194" y="7"/>
			<point x="195" y="9"/>
			<point x="195" y="12" type="curve" smooth="yes"/>
			<point x="194" y="81"/>
			<point x="185" y="278"/>
			<point x="185" y="352" type="curve" smooth="yes"/>
			<point x="185" y="449"/>
			<point x="191" y="597"/>
			<point x="195" y="690" type="curve"/>
			<point x="190" y="700" type="line"/>
			<point x="90" y="700" type="line"/>
			<point x="85" y="690" type="line"/>
			<point x="89" y="597"/>
			<point x="95" y="449"/>
			<point x="95" y="352" type="curve" smooth="yes"/>
			<point x="95" y="289"/>
			<point x="89" y="74"/>
			<point x="90" y="11" type="curve"/>
			<point x="91" y="9"/>
			<point x="92" y="7"/>
			<point x="93" y="5" type="curve" smooth="yes"/>
			<point x="94" y="3"/>
			<point x="94" y="1"/>
		</contour>
		<contour>
			<point x="150" y="311" type="line"/>
			<point x="155" y="311"/>
			<point x="289" y="313"/>
			<point x="330" y="313" type="curve" smooth="yes"/>
			<point x="371" y="313"/>
			<point x="506" y="311"/>
			<point x="511" y="311" type="curve"/>
			<point x="511" y="400" type="line"/>
			<point x="507" y="400"/>
			<point x="370" y="398"/>
			<point x="330" y="398" type="curve" smooth="yes"/>
			<point x="290" y="398"/>
			<point x="154" y="400"/>
			<point x="150" y="400" type="curve"/>
		</contour>
	</outline>
</glyph>
<glyph name="J" format="2">
	<advance width="292"/>
	<unicode hex="004A"/>
	<outline>
		<contour>
			<point x="46" y="-172" type="curve" smooth="yes"/>
			<point x="146" y="-172"/>
			<point x="222" y="-106"/>
			<point x="219" y="21" type="curve" smooth="yes"/>
			<point x="214" y="247"/>
			<point x="214" y="474"/>
			<point x="223" y="690" type="curve"/>
			<point x="213" y="700" type="line"/>
			<point x="134" y="700" type="line"/>
			<point x="124" y="690" type="line"/>
			<point x="134" y="480"/>
			<point x="128" y="259"/>
			<point x="128" y="39" type="curve" smooth="yes"/>
			<point x="128" y="-53"/>
			<point x="91" y="-82"/>
			<point x="41" y="-82" type="curve" smooth="yes"/>
			<point x="-1" y="-82"/>
			<point x="-52" y="-60"/>
			<point x="-69" y="-44" type="curve"/>
			<point x="-110" y="-98" type="line"/>
			<point x="-77" y="-130"/>
			<point x="-12" y="-172"/>
		</contour>
	</outline>
</glyph>
<glyph name="L" format="2">
	<advance width="470"/>
	<unicode hex="004C"/>
	<outline>
		<contour>
			<point x="90" y="0" type="line"/>
			<point x="159" y="3"/>
			<point x="209" y="4"/>
			<point x="254" y="4" type="curve" smooth="yes"/>
			<point x="301" y="4"/>
			<point x="385" y="3"/>
			<point x="440" y="0" type="curve"/>
			<point x="445" y="10" type="line"/>
			<point x="445" y="80" type="line"/>
			<point x="440" y="89" type="line"/>
			<point x="440" y="89"/>
			<point x="414" y="88"/>
			<point x="341" y="85" type="curve" smooth="yes"/>
			<point x="288" y="83"/>
			<point x="224" y="81"/>
			<point x="149" y="81" type="curve"/>
			<point x="192" y="53" type="line"/>
			<point x="189" y="102"/>
			<point x="185" y="196"/>
			<point x="185" y="333" type="curve" smooth="yes"/>
			<point x="185" y="500"/>
			<point x="188" y="641"/>
			<point x="193" y="690" type="curve"/>
			<point x="188" y="700" type="line"/>
			<point x="90" y="700" type="line"/>
			<point x="85" y="690" type="line"/>
			<point x="89" y="631"/>
			<point x="95" y="501"/>
			<point x="95" y="335" type="curve" smooth="yes"/>
			<point x="95" y="219"/>
			<point x="91" y="170"/>
			<point x="85" y="10" type="curve"/>
		</contour>
	</outline>
</glyph>
<glyph name="O" format="2">
	<advance width="740"/>
	<unicode hex="004F"/>
	<outline>
		<contour>
			<point x="370" y="-10" type="curve" smooth="yes"/>
			<point x="553" y="-10"/>
			<point x="665" y="122"/>
			<point x="665" y="350" type="curve" smooth="yes"/>
			<point x="665" y="578"/>
			<point x="553" y="710"/>
			<point x="370" y="710" type="curve" smooth="yes"/>
			<point x="187" y="710"/>
			<point x="75" y="578"/>
			<point x="75" y="350" type="curve" smooth="yes"/>
			<point x="75" y="122"/>
			<point x="187" y="-10"/>
		</contour>
		<contour>
			<point x="370" y="80" type="curve" smooth="yes"/>
			<point x="245" y="80"/>
			<point x="175" y="171"/>
			<point x="175" y="350" type="curve" smooth="yes"/>
			<point x="175" y="529"/>
			<point x="245" y="620"/>
			<point x="370" y="620" type="curve" smooth="yes"/>
			<point x="495" y="620"/>
			<point x="565" y="529"/>
			<point x="565" y="350" type="curve" smooth="yes"/>
			<point x="565" y="171"/>
			<point x="495" y="80"/>
		</contour>
	</outline>
</glyph>
<glyph name="Q" format="2">
	<advance width="740"/>
	<unicode hex="0051"/>
	<outline>
		<contour>
			<point x="370" y="-10" type="curve" smooth="yes"/>
			<point x="553" y="-10"/>
			<point x="665" y="122"/>
			<point x="665" y="345" type="curve" smooth="yes"/>
			<point x="665" y="578"/>
			<point x="553" y="710"/>
			<point x="370" y="710" type="curve" smooth="yes"/>
			<point x="187" y="710"/>
			<point x="75" y="578"/>
			<point x="75" y="345" type="curve" smooth="yes"/>
			<point x="75" y="122"/>
			<point x="187" y="-10"/>
		</contour>
		<contour>
			<point x="444" y="-211" type="line"/>
			<point x="540" y="-154" type="line"/>
			<point x="543" y="-141" type="line"/>
			<point x="403" y="22" type="line"/>
			<point x="341" y="0" type="line"/>
			<point x="425" y="-207" type="line"/>
		</contour>
		<contour>
			<point x="370" y="80" type="curve" smooth="yes"/>
			<point x="245" y="80"/>
			<point x="175" y="171"/>
			<point x="175" y="345" type="curve" smooth="yes"/>
			<point x="175" y="529"/>
			<point x="245" y="620"/>
			<point x="370" y="620" type="curve" smooth="yes"/>
			<point x="495" y="620"/>
			<point x="565" y="529"/>
			<point x="565" y="345" type="curve" smooth="yes"/>
			<point x="565" y="171"/>
			<point x="495" y="80"/>
		</contour>
	</outline>
</glyph>
<glyph name="R" format="2">
	<advance width="617"/>
	<unicode hex="0052"/>
	<outline>
		<contour>
			<point x="90" y="0" type="line"/>
			<point x="195" y="0" type="line"/>
			<point x="200" y="10" type="line"/>
			<point x="194" y="110"/>
			<point x="185" y="210"/>
			<point x="185" y="383" type="curve" smooth="yes"/>
			<point x="185" y="503"/>
			<point x="188" y="570"/>
			<point x="191" y="657" type="curve"/>
			<point x="161" y="620" type="line"/>
			<point x="281" y="620" type="line" smooth="yes"/>
			<point x="385" y="620"/>
			<point x="437" y="576"/>
			<point x="437" y="488" type="curve" smooth="yes"/>
			<point x="437" y="399"/>
			<point x="382" y="355"/>
			<point x="272" y="355" type="curve" smooth="yes"/>
			<point x="178" y="355" type="line"/>
			<point x="178" y="275" type="line"/>
			<point x="277" y="275" type="line" smooth="yes"/>
			<point x="439" y="275"/>
			<point x="530" y="352"/>
			<point x="530" y="490" type="curve" smooth="yes"/>
			<point x="530" y="628"/>
			<point x="441" y="705"/>
			<point x="281" y="705" type="curve" smooth="yes"/>
			<point x="90" y="705" type="line"/>
			<point x="85" y="695" type="line"/>
			<point x="89" y="600"/>
			<point x="95" y="503"/>
			<point x="95" y="383" type="curve" smooth="yes"/>
			<point x="95" y="207"/>
			<point x="89" y="108"/>
			<point x="85" y="10" type="curve"/>
		</contour>
		<contour>
			<point x="475" y="-8" type="curve" smooth="yes"/>
			<point x="507" y="-8"/>
			<point x="526" y="3"/>
			<point x="565" y="28" type="curve"/>
			<point x="546" y="86" type="line"/>
			<point x="467" y="78" type="line"/>
			<point x="499" y="56" type="line"/>
			<point x="467" y="117"/>
			<point x="398" y="293"/>
			<point x="375" y="352" type="curve"/>
			<point x="301" y="322" type="line"/>
			<point x="338" y="233"/>
			<point x="366" y="122"/>
			<point x="385" y="70" type="curve" smooth="yes"/>
			<point x="404" y="18"/>
			<point x="434" y="-8"/>
		</contour>
	</outline>
</glyph>
<glyph name="U" format="2">
	<advance width="673"/>
	<unicode hex="0055"/>
	<outline>
		<contour>
			<point x="337" y="-11" type="curve" smooth="yes"/>
			<point x="505" y="-11"/>
			<point x="588" y="84"/>
			<point x="588" y="306" type="curve" smooth="yes"/>
			<point x="588" y="690" type="line"/>
			<point x="579" y="700" type="line"/>
			<point x="502" y="700" type="line"/>
			<point x="493" y="691" type="line"/>
			<point x="493" y="326" type="line" smooth="yes"/>
			<point x="493" y="139"/>
			<point x="450" y="79"/>
			<point x="339" y="79" type="curve" smooth="yes"/>
			<point x="228" y="79"/>
			<point x="185" y="139"/>
			<point x="185" y="326" type="curve" smooth="yes"/>
			<point x="185" y="691" type="line"/>
			<point x="176" y="700" type="line"/>
			<point x="94" y="700" type="line"/>
			<point x="85" y="690" type="line"/>
			<point x="85" y="306" type="line" smooth="yes"/>
			<point x="85" y="84"/>
			<point x="169" y="-11"/>
		</contour>
	</outline>
</glyph>
<glyph name="a" format="2">
	<advance width="542"/>
	<unicode hex="0061"/>
	<guideline x="109" y="405" angle="0"/>
	<anchor x="288" y="510" name="top"/>
	<outline>
		<contour>
			<point x="423" y="-9" type="curve" smooth="yes"/>
			<point x="440.91045" y="-9"/>
			<point x="473.0995" y="-3.9801"/>
			<point x="493" y="0" type="curve"/>
			<point x="497" y="65" type="line"/>
			<point x="396" y="85" type="line"/>
			<point x="445" y="37" type="line"/>
			<point x="445" y="355" type="line" smooth="yes"/>
			<point x="445" y="474"/>
			<point x="357" y="521"/>
			<point x="263" y="521" type="curve" smooth="yes"/>
			<point x="184" y="521"/>
			<point x="101" y="488"/>
			<point x="59" y="438" type="curve"/>
			<point x="59" y="504" type="line"/>
			<point x="128" y="394" type="line"/>
			<point x="81" y="387" type="line"/>
			<point x="130" y="421"/>
			<point x="195" y="444"/>
			<point x="251" y="444" type="curve" smooth="yes"/>
			<point x="312" y="444"/>
			<point x="360" y="416"/>
			<point x="360" y="344" type="curve" smooth="yes"/>
			<point x="360" y="57" type="line" smooth="yes"/>
			<point x="360" y="12.22388"/>
			<point x="373.24876" y="-9"/>
		</contour>
		<contour>
			<point x="211" y="-10" type="curve" smooth="yes"/>
			<point x="296.57214" y="-10"/>
			<point x="354.08458" y="41.32338"/>
			<point x="371" y="106" type="curve"/>
			<point x="336" y="70" type="line"/>
			<point x="378" y="70" type="line"/>
			<point x="360" y="201" type="line"/>
			<point x="360" y="114.43284"/>
			<point x="319.57214" y="65"/>
			<point x="234" y="65" type="curve" smooth="yes"/>
			<point x="183.25373" y="65"/>
			<point x="145" y="95.26866"/>
			<point x="145" y="149" type="curve" smooth="yes"/>
			<point x="145" y="195.76617"/>
			<point x="165.37313" y="228"/>
			<point x="240" y="228" type="curve" smooth="yes"/>
			<point x="373" y="228" type="line"/>
			<point x="373" y="293" type="line"/>
			<point x="221" y="293" type="line"/>
			<point x="121" y="293"/>
			<point x="55" y="234.54229"/>
			<point x="55" y="143" type="curve" smooth="yes"/>
			<point x="55" y="53.44776"/>
			<point x="120.45274" y="-10"/>
		</contour>
	</outline>
</glyph>
<glyph name="d" format="2">
	<advance width="552"/>
	<unicode hex="0064"/>
	<outline>
		<contour>
			<point x="225" y="-9" type="curve" smooth="yes"/>
			<point x="318.53234" y="-9"/>
			<point x="373.0398" y="59.30846"/>
			<point x="381" y="121" type="curve"/>
			<point x="344" y="54" type="line"/>
			<point x="402" y="54" type="line"/>
			<point x="369" y="93" type="line"/>
			<point x="369" y="57" type="line" smooth="yes"/>
			<point x="369" y="12.22388"/>
			<point x="380.17413" y="-9"/>
			<point x="415" y="-9" type="curve" smooth="yes"/>
			<point x="435.89552" y="-9"/>
			<point x="480.11443" y="-4.97512"/>
			<point x="503" y="0" type="curve"/>
			<point x="507" y="65" type="line"/>
			<point x="414" y="84" type="line"/>
			<point x="463" y="37" type="line"/>
			<point x="452" y="132"/>
			<point x="455" y="227"/>
			<point x="455" y="322" type="curve" smooth="yes"/>
			<point x="455" y="447.37313"/>
			<point x="460" y="692.62687"/>
			<point x="460" y="718" type="curve" smooth="yes"/>
			<point x="460" y="759.79104"/>
			<point x="444.79602" y="780"/>
			<point x="404" y="780" type="curve" smooth="yes"/>
			<point x="386.08955" y="780"/>
			<point x="366.83831" y="777.82836"/>
			<point x="346.24627" y="773.48507" type="curve" smooth="yes"/>
			<point x="325.65423" y="769.14179"/>
			<point x="305.90547" y="764.9801"/>
			<point x="287" y="761" type="curve"/>
			<point x="294" y="696" type="line"/>
			<point x="384" y="700" type="line"/>
			<point x="360" y="723" type="line"/>
			<point x="371" y="607"/>
			<point x="370" y="389"/>
			<point x="370" y="276" type="curve" smooth="yes"/>
			<point x="370" y="129.73134"/>
			<point x="327.59701" y="70"/>
			<point x="247" y="70" type="curve" smooth="yes"/>
			<point x="184.31343" y="70"/>
			<point x="150" y="120.62189"/>
			<point x="150" y="245" type="curve" smooth="yes"/>
			<point x="150" y="270" type="line" smooth="yes"/>
			<point x="150" y="392.38806"/>
			<point x="188.32338" y="440"/>
			<point x="253" y="440" type="curve" smooth="yes"/>
			<point x="300.76119" y="440"/>
			<point x="348.21891" y="418.86567"/>
			<point x="392" y="392" type="curve"/>
			<point x="392" y="452" type="line"/>
			<point x="346" y="452" type="line"/>
			<point x="370" y="429" type="line"/>
			<point x="357.06468" y="477.75622"/>
			<point x="309.63682" y="520"/>
			<point x="237" y="520" type="curve" smooth="yes"/>
			<point x="140.48259" y="520"/>
			<point x="55" y="458.03483"/>
			<point x="55" y="265" type="curve" smooth="yes"/>
			<point x="55" y="240" type="line" smooth="yes"/>
			<point x="55" y="69.85075"/>
			<point x="120.52239" y="-9"/>
		</contour>
	</outline>
</glyph>
<glyph name="e" format="2">
	<advance width="501"/>
	<unicode hex="0065"/>
	<outline>
		<contour>
			<point x="266" y="-10" type="curve" smooth="yes"/>
			<point x="334.65672" y="-10"/>
			<point x="387.25871" y="14.14925"/>
			<point x="439" y="44" type="curve"/>
			<point x="440" y="51" type="line"/>
			<point x="420" y="95" type="line"/>
			<point x="413" y="96" type="line"/>
			<point x="366.23383" y="79.08458"/>
			<point x="326.76617" y="65"/>
			<point x="280" y="65" type="curve" smooth="yes"/>
			<point x="184.47761" y="65"/>
			<point x="145" y="110.71144"/>
			<point x="145" y="253" type="curve" smooth="yes"/>
			<point x="145" y="395.28856"/>
			<point x="185.37313" y="445"/>
			<point x="260" y="445" type="curve" smooth="yes"/>
			<point x="327.66169" y="445"/>
			<point x="365" y="409.39303"/>
			<point x="365" y="288" type="curve"/>
			<point x="375" y="299" type="line"/>
			<point x="108" y="299" type="line"/>
			<point x="113" y="228" type="line"/>
			<point x="169.21891" y="228"/>
			<point x="223.71891" y="228"/>
			<point x="276.5" y="228" type="curve" smooth="yes"/>
			<point x="329.28109" y="228"/>
			<point x="383.78109" y="228"/>
			<point x="440" y="228" type="curve"/>
			<point x="451" y="241" type="line"/>
			<point x="455" y="304" type="line" smooth="yes"/>
			<point x="461.96517" y="421.41294"/>
			<point x="402.33333" y="520"/>
			<point x="269" y="520" type="curve" smooth="yes"/>
			<point x="125.71642" y="520"/>
			<point x="55" y="429.1194"/>
			<point x="55" y="253" type="curve" smooth="yes"/>
			<point x="55" y="76.8806"/>
			<point x="125.70149" y="-10"/>
		</contour>
	</outline>
</glyph>
<glyph name="f" format="2">
	<advance width="338"/>
	<unicode hex="0066"/>
	<guideline x="236" y="686" angle="90" identifier="kJy2339NW6"/>
	<outline>
		<contour>
			<point x="117" y="0" type="line"/>
			<point x="204" y="0" type="line"/>
			<point x="214" y="10" type="line"/>
			<point x="209" y="70"/>
			<point x="204" y="136"/>
			<point x="204" y="265" type="curve" smooth="yes"/>
			<point x="204" y="594" type="line" smooth="yes"/>
			<point x="204" y="668.62687"/>
			<point x="220.29353" y="705"/>
			<point x="279" y="705" type="curve" smooth="yes"/>
			<point x="299.89552" y="705"/>
			<point x="327.3227" y="701.72082"/>
			<point x="356" y="694" type="curve"/>
			<point x="361" y="697" type="line"/>
			<point x="376" y="757" type="line"/>
			<point x="374" y="761" type="line"/>
			<point x="354.55655" y="768.16337"/>
			<point x="323.19338" y="780"/>
			<point x="278" y="780" type="curve" smooth="yes"/>
			<point x="162.57711" y="780"/>
			<point x="119" y="702.54726"/>
			<point x="119" y="612" type="curve" smooth="yes"/>
			<point x="119" y="265" type="line" smooth="yes"/>
			<point x="119" y="133.65672"/>
			<point x="112.9801" y="66.71642"/>
			<point x="109" y="10" type="curve"/>
		</contour>
		<contour>
			<point x="47" y="445" type="line"/>
			<point x="96.75124" y="445.99502"/>
			<point x="137.23881" y="447"/>
			<point x="185" y="447" type="curve" smooth="yes"/>
			<point x="219.27139" y="447"/>
			<point x="266.02638" y="446.07096"/>
			<point x="326" y="445" type="curve"/>
			<point x="333" y="452" type="line"/>
			<point x="333" y="505" type="line"/>
			<point x="326" y="510" type="line"/>
			<point x="47" y="510" type="line"/>
			<point x="40" y="503" type="line"/>
			<point x="40" y="452" type="line"/>
		</contour>
	</outline>
</glyph>
<glyph name="l" format="2">
	<advance width="318"/>
	<unicode hex="006C"/>
	<outline>
		<contour>
			<point x="167" y="-10" type="curve" smooth="yes"/>
			<point x="203.81592" y="-10"/>
			<point x="236.16418" y="-4.97512"/>
			<point x="269" y="0" type="curve"/>
			<point x="273" y="64" type="line"/>
			<point x="195" y="79" type="line"/>
			<point x="213" y="52" type="line"/>
			<point x="203" y="143"/>
			<point x="203" y="270"/>
			<point x="203" y="384" type="curve" smooth="yes"/>
			<point x="203" y="493.95025"/>
			<point x="208" y="696.60697"/>
			<point x="208" y="718" type="curve" smooth="yes"/>
			<point x="208" y="756.80597"/>
			<point x="191.77612" y="780"/>
			<point x="147" y="780" type="curve" smooth="yes"/>
			<point x="115.1592" y="780"/>
			<point x="75.84577" y="769.9602"/>
			<point x="45" y="762" type="curve"/>
			<point x="53" y="699" type="line"/>
			<point x="128" y="703" type="line"/>
			<point x="107" y="732" type="line"/>
			<point x="119" y="463"/>
			<point x="118" y="611"/>
			<point x="118" y="384" type="curve" smooth="yes"/>
			<point x="118" y="274.54726"/>
			<point x="109" y="97.31841"/>
			<point x="109" y="61" type="curve" smooth="yes"/>
			<point x="109" y="16.22388"/>
			<point x="131.1791" y="-10"/>
		</contour>
	</outline>
</glyph>
<glyph name="m" format="2">
	<advance width="867"/>
	<unicode hex="006D"/>
	<guideline x="414" y="251" angle="0" identifier="hA9fwbT0CR"/>
	<outline>
		<contour>
			<point x="747" y="-10" type="curve" smooth="yes"/>
			<point x="766.9005" y="-10"/>
			<point x="799.09453" y="-3.9801"/>
			<point x="818" y="0" type="curve"/>
			<point x="822" y="64" type="line"/>
			<point x="728" y="83" type="line"/>
			<point x="769" y="33" type="line"/>
			<point x="769" y="365" type="line" smooth="yes"/>
			<point x="769" y="459.52736"/>
			<point x="721.50746" y="520"/>
			<point x="623" y="520" type="curve" smooth="yes"/>
			<point x="534.44279" y="520"/>
			<point x="468" y="462"/>
			<point x="456" y="395" type="curve"/>
			<point x="500" y="446" type="line"/>
			<point x="463" y="446" type="line"/>
			<point x="479" y="390" type="line"/>
			<point x="479" y="454.67662"/>
			<point x="435.48259" y="520"/>
			<point x="332" y="520" type="curve" smooth="yes"/>
			<point x="256.37811" y="520"/>
			<point x="195.88557" y="467.63682"/>
			<point x="173" y="395" type="curve"/>
			<point x="209" y="447" type="line"/>
			<point x="173" y="447" type="line"/>
			<point x="189" y="413" type="line"/>
			<point x="189" y="458" type="line" smooth="yes"/>
			<point x="189" y="496.80597"/>
			<point x="176.83085" y="520"/>
			<point x="143" y="520" type="curve" smooth="yes"/>
			<point x="114.14428" y="520"/>
			<point x="77.83582" y="512.9602"/>
			<point x="45" y="505" type="curve"/>
			<point x="52" y="440" type="line"/>
			<point x="113" y="443" type="line"/>
			<point x="94" y="472" type="line"/>
			<point x="101" y="423"/>
			<point x="104" y="334"/>
			<point x="104" y="275" type="curve" smooth="yes"/>
			<point x="104" y="197"/>
			<point x="102" y="80"/>
			<point x="94" y="10" type="curve"/>
			<point x="99" y="0" type="line"/>
			<point x="194" y="0" type="line"/>
			<point x="199" y="10" type="line"/>
			<point x="192" y="77"/>
			<point x="189" y="197"/>
			<point x="189" y="275" type="curve" smooth="yes"/>
			<point x="189" y="393.40796"/>
			<point x="223.36816" y="440"/>
			<point x="297" y="440" type="curve" smooth="yes"/>
			<point x="369.63682" y="440"/>
			<point x="394" y="394.40299"/>
			<point x="394" y="275" type="curve" smooth="yes"/>
			<point x="394" y="225"/>
			<point x="392" y="55"/>
			<point x="384" y="6" type="curve"/>
			<point x="388" y="0" type="line"/>
			<point x="484" y="0" type="line"/>
			<point x="489" y="6" type="line"/>
			<point x="482.03483" y="87.59204"/>
			<point x="479" y="129.72637"/>
			<point x="479" y="275" type="curve" smooth="yes"/>
			<point x="479" y="390.42289"/>
			<point x="509.41294" y="440"/>
			<point x="592" y="440" type="curve" smooth="yes"/>
			<point x="663.64179" y="440"/>
			<point x="684" y="397.38806"/>
			<point x="684" y="275" type="curve" smooth="yes"/>
			<point x="684" y="215"/>
			<point x="680" y="125"/>
			<point x="680" y="65" type="curve" smooth="yes"/>
			<point x="680" y="13.25871"/>
			<point x="709.18905" y="-10"/>
		</contour>
	</outline>
</glyph>
<glyph name="q" format="2">
	<advance width="548"/>
	<unicode hex="0071"/>
	<outline>
		<contour>
			<point x="425" y="-230" type="curve" smooth="yes"/>
			<point x="453.85572" y="-230"/>
			<point x="486.12438" y="-222.97015"/>
			<point x="511" y="-217" type="curve"/>
			<point x="513" y="-152" type="line"/>
			<point x="419" y="-143" type="line"/>
			<point x="463" y="-176" type="line"/>
			<point x="457" y="-66"/>
			<point x="456" y="28"/>
			<point x="456" y="165" type="curve" smooth="yes"/>
			<point x="456" y="253"/>
			<point x="456" y="412"/>
			<point x="466" y="500" type="curve"/>
			<point x="461" y="510" type="line"/>
			<point x="376" y="510" type="line"/>
			<point x="371" y="500" type="line"/>
			<point x="371" y="253" type="line" smooth="yes"/>
			<point x="371" y="140.56219"/>
			<point x="330.62687" y="70"/>
			<point x="256" y="70" type="curve" smooth="yes"/>
			<point x="178.38806" y="70"/>
			<point x="150" y="120.63184"/>
			<point x="150" y="247" type="curve" smooth="yes"/>
			<point x="150" y="272" type="line" smooth="yes"/>
			<point x="150" y="387.42289"/>
			<point x="181.36816" y="435"/>
			<point x="255" y="435" type="curve" smooth="yes"/>
			<point x="300.77114" y="435"/>
			<point x="349.21891" y="412.87562"/>
			<point x="393" y="388" type="curve"/>
			<point x="393" y="458" type="line"/>
			<point x="339" y="458" type="line"/>
			<point x="371" y="432" type="line"/>
			<point x="357.06965" y="474.78607"/>
			<point x="307.65174" y="520"/>
			<point x="238" y="520" type="curve" smooth="yes"/>
			<point x="128.54726" y="520"/>
			<point x="55" y="445.1194"/>
			<point x="55" y="269" type="curve" smooth="yes"/>
			<point x="55" y="244" type="line" smooth="yes"/>
			<point x="55" y="66.88557"/>
			<point x="101.61194" y="-10"/>
			<point x="224" y="-10" type="curve" smooth="yes"/>
			<point x="315.54229" y="-10"/>
			<point x="367.06965" y="58.31841"/>
			<point x="381" y="122" type="curve"/>
			<point x="352" y="58" type="line"/>
			<point x="403" y="58" type="line"/>
			<point x="371" y="131" type="line"/>
			<point x="371" y="-15" type="line" smooth="yes"/>
			<point x="371" y="-57"/>
			<point x="365" y="-120"/>
			<point x="365" y="-156" type="curve" smooth="yes"/>
			<point x="365" y="-207.74129"/>
			<point x="384.20398" y="-230"/>
		</contour>
	</outline>
</glyph>
<glyph name="r" format="2">
	<advance width="414"/>
	<unicode hex="0072"/>
	<outline>
		<contour>
			<point x="99" y="0" type="line"/>
			<point x="194" y="0" type="line"/>
			<point x="199" y="10" type="line"/>
			<point x="192" y="74"/>
			<point x="189" y="195"/>
			<point x="189" y="268" type="curve" smooth="yes"/>
			<point x="189" y="307.801"/>
			<point x="189" y="349.41791"/>
			<point x="189" y="392.85075" type="curve" smooth="yes"/>
			<point x="189" y="425"/>
			<point x="189" y="449"/>
			<point x="189" y="458" type="curve"/>
			<point x="189" y="496.80597"/>
			<point x="175.81095" y="520"/>
			<point x="138" y="520" type="curve" smooth="yes"/>
			<point x="110.1393" y="520"/>
			<point x="76.8408" y="512.9602"/>
			<point x="45" y="505" type="curve"/>
			<point x="52" y="440" type="line"/>
			<point x="113" y="443" type="line"/>
			<point x="94" y="472" type="line"/>
			<point x="101" y="423"/>
			<point x="104" y="334"/>
			<point x="104" y="275" type="curve" smooth="yes"/>
			<point x="104" y="202"/>
			<point x="102" y="79"/>
			<point x="94" y="10" type="curve"/>
		</contour>
		<contour>
			<point x="189" y="260" type="line"/>
			<point x="189" y="359.50249"/>
			<point x="246.68657" y="437.84577"/>
			<point x="384" y="407" type="curve"/>
			<point x="393" y="413" type="line"/>
			<point x="410" y="498" type="line"/>
			<point x="404" y="507" type="line"/>
			<point x="392.0597" y="511.97512"/>
			<point x="363.8408" y="520"/>
			<point x="332" y="520" type="curve" smooth="yes"/>
			<point x="248" y="520"/>
			<point x="210" y="481"/>
			<point x="182" y="367" type="curve"/>
			<point x="239" y="429" type="line"/>
			<point x="184" y="429" type="line"/>
			<point x="184" y="262" type="line"/>
		</contour>
	</outline>
</glyph>
<glyph name="s" format="2">
	<advance width="459"/>
	<unicode hex="0073"/>
	<outline>
		<contour>
			<point x="232" y="-10" type="curve" smooth="yes"/>
			<point x="345" y="-10"/>
			<point x="424" y="51"/>
			<point x="424" y="137" type="curve" smooth="yes"/>
			<point x="424" y="337"/>
			<point x="163" y="285"/>
			<point x="163" y="379" type="curve" smooth="yes"/>
			<point x="163" y="420"/>
			<point x="193" y="440"/>
			<point x="253" y="440" type="curve" smooth="yes"/>
			<point x="293" y="440"/>
			<point x="338" y="430"/>
			<point x="371" y="404" type="curve"/>
			<point x="378" y="406" type="line"/>
			<point x="409" y="458" type="line"/>
			<point x="407" y="465" type="line"/>
			<point x="361" y="500"/>
			<point x="301" y="520"/>
			<point x="247" y="520" type="curve" smooth="yes"/>
			<point x="145" y="520"/>
			<point x="73" y="460"/>
			<point x="73" y="374" type="curve" smooth="yes"/>
			<point x="73" y="190"/>
			<point x="334" y="242"/>
			<point x="334" y="129" type="curve" smooth="yes"/>
			<point x="334" y="90"/>
			<point x="301" y="70"/>
			<point x="234" y="70" type="curve" smooth="yes"/>
			<point x="179" y="70"/>
			<point x="113" y="87"/>
			<point x="69" y="105" type="curve"/>
			<point x="66" y="104" type="line"/>
			<point x="40" y="47" type="line"/>
			<point x="41" y="40" type="line"/>
			<point x="97" y="8"/>
			<point x="167" y="-10"/>
		</contour>
	</outline>
</glyph>
<glyph name="t" format="2">
	<advance width="384"/>
	<unicode hex="0074"/>
	<outline>
		<contour>
			<point x="252" y="-10" type="curve" smooth="yes"/>
			<point x="301.75124" y="-10"/>
			<point x="337.13433" y="5.08458"/>
			<point x="364" y="22" type="curve"/>
			<point x="366" y="27" type="line"/>
			<point x="350" y="74" type="line"/>
			<point x="344" y="78" type="line"/>
			<point x="329.07463" y="74.0199"/>
			<point x="315.87065" y="70"/>
			<point x="290" y="70" type="curve" smooth="yes"/>
			<point x="232.28856" y="70"/>
			<point x="212" y="102"/>
			<point x="212" y="176" type="curve" smooth="yes"/>
			<point x="212" y="292"/>
			<point x="218" y="516"/>
			<point x="221" y="610" type="curve"/>
			<point x="211" y="620" type="line"/>
			<point x="125" y="600" type="line"/>
			<point x="117" y="590" type="line"/>
			<point x="128" y="486"/>
			<point x="127" y="275"/>
			<point x="127" y="172" type="curve" smooth="yes"/>
			<point x="127" y="40.65672"/>
			<point x="172.39801" y="-10"/>
		</contour>
		<contour>
			<point x="56" y="444" type="line"/>
			<point x="91" y="445"/>
			<point x="144" y="447"/>
			<point x="179" y="447" type="curve" smooth="yes"/>
			<point x="194.9204" y="447"/>
			<point x="285.14925" y="444.49751"/>
			<point x="315" y="444" type="curve"/>
			<point x="320" y="452" type="line"/>
			<point x="320" y="504" type="line"/>
			<point x="315" y="510" type="line"/>
			<point x="56" y="510" type="line"/>
			<point x="50" y="502" type="line"/>
			<point x="50" y="452" type="line"/>
		</contour>
	</outline>
</glyph>
<glyph name="u" format="2">
	<advance width="575"/>
	<unicode hex="0075"/>
	<outline>
		<contour>
			<point x="247" y="-10" type="curve" smooth="yes"/>
			<point x="350.48259" y="-10"/>
			<point x="385.0995" y="55.37313"/>
			<point x="405" y="130" type="curve"/>
			<point x="368" y="60" type="line"/>
			<point x="406" y="60" type="line"/>
			<point x="393" y="101" type="line"/>
			<point x="393" y="57" type="line" smooth="yes"/>
			<point x="393" y="13.21891"/>
			<point x="408.22388" y="-10"/>
			<point x="453" y="-10" type="curve" smooth="yes"/>
			<point x="473.89552" y="-10"/>
			<point x="502.1194" y="-4.97015"/>
			<point x="526" y="1" type="curve"/>
			<point x="530" y="65" type="line"/>
			<point x="448" y="76" type="line"/>
			<point x="485" y="39" type="line"/>
			<point x="484" y="46"/>
			<point x="477" y="165.84577"/>
			<point x="477" y="235" type="curve" smooth="yes"/>
			<point x="477" y="312"/>
			<point x="479" y="433"/>
			<point x="487" y="500" type="curve"/>
			<point x="482" y="510" type="line"/>
			<point x="387" y="510" type="line"/>
			<point x="382" y="500" type="line"/>
			<point x="389" y="440"/>
			<point x="392" y="331"/>
			<point x="392" y="259" type="curve" smooth="yes"/>
			<point x="392" y="136.61194"/>
			<point x="363.59701" y="70"/>
			<point x="283" y="70" type="curve" smooth="yes"/>
			<point x="205.38806" y="70"/>
			<point x="182" y="116.59204"/>
			<point x="182" y="235" type="curve" smooth="yes"/>
			<point x="182" y="295"/>
			<point x="186" y="385"/>
			<point x="186" y="445" type="curve" smooth="yes"/>
			<point x="186" y="496.74129"/>
			<point x="161.8408" y="520"/>
			<point x="130" y="520" type="curve" smooth="yes"/>
			<point x="107.11443" y="520"/>
			<point x="75.86567" y="514.9801"/>
			<point x="49" y="511" type="curve"/>
			<point x="45" y="446" type="line"/>
			<point x="139" y="427" type="line"/>
			<point x="97" y="478" type="line"/>
			<point x="97" y="145" type="line" smooth="yes"/>
			<point x="97" y="39.52736"/>
			<point x="154.46269" y="-10"/>
		</contour>
	</outline>
</glyph>
<glyph name="v" format="2">
	<advance width="508"/>
	<unicode hex="0076"/>
	<guideline x="-6" y="542" angle="0" identifier="4lh4eeIw6S"/>
	<outline>
		<contour>
			<point x="202" y="0" type="line"/>
			<point x="325" y="0" type="line"/>
			<point x="333" y="10" type="line"/>
			<point x="385" y="173"/>
			<point x="432" y="337"/>
			<point x="493" y="500" type="curve"/>
			<point x="488" y="510" type="line"/>
			<point x="483" y="510"/>
			<point x="411" y="510"/>
			<point x="406" y="510" type="curve"/>
			<point x="399" y="502" type="line"/>
			<point x="359" y="344"/>
			<point x="318" y="198"/>
			<point x="253" y="34" type="curve"/>
			<point x="290" y="34" type="line"/>
			<point x="222" y="202"/>
			<point x="154" y="392"/>
			<point x="121" y="500" type="curve"/>
			<point x="115" y="510" type="line"/>
			<point x="109" y="510"/>
			<point x="25" y="510"/>
			<point x="19" y="510" type="curve"/>
			<point x="15" y="500" type="line"/>
			<point x="68" y="377"/>
			<point x="146" y="173"/>
			<point x="194" y="10" type="curve"/>
		</contour>
	</outline>
</glyph>
<glyph name="y" format="2">
	<advance width="461"/>
	<unicode hex="0079"/>
	<outline>
		<contour>
			<point x="120" y="-227" type="curve" smooth="yes"/>
			<point x="203" y="-227"/>
			<point x="257" y="-172"/>
			<point x="312" y="9" type="curve" smooth="yes"/>
			<point x="363" y="176"/>
			<point x="392" y="319"/>
			<point x="451" y="500" type="curve"/>
			<point x="446" y="510" type="line"/>
			<point x="441" y="510"/>
			<point x="366" y="510"/>
			<point x="361" y="510" type="curve"/>
			<point x="354" y="502" type="line"/>
			<point x="320" y="335"/>
			<point x="289" y="198"/>
			<point x="234" y="34" type="curve"/>
			<point x="262" y="34" type="line"/>
			<point x="194" y="202"/>
			<point x="147" y="392"/>
			<point x="119" y="500" type="curve"/>
			<point x="113" y="510" type="line"/>
			<point x="111" y="510"/>
			<point x="22" y="510"/>
			<point x="16" y="510" type="curve"/>
			<point x="12" y="500" type="line"/>
			<point x="61" y="377"/>
			<point x="123" y="173"/>
			<point x="171" y="10" type="curve"/>
			<point x="179" y="0" type="line"/>
			<point x="272" y="0" type="line"/>
			<point x="249" y="58" type="line"/>
			<point x="219" y="-56"/>
			<point x="179" y="-152"/>
			<point x="116" y="-152" type="curve" smooth="yes"/>
			<point x="79" y="-152"/>
			<point x="49" y="-144"/>
			<point x="21" y="-137" type="curve"/>
			<point x="16" y="-140" type="line"/>
			<point x="0" y="-204" type="line"/>
			<point x="2" y="-208" type="line"/>
			<point x="18" y="-213"/>
			<point x="81" y="-227"/>
		</contour>
	</outline>
</glyph>
<glyph name="dieresis" format="2">
	<advance width="440"/>
	<unicode hex="00A8"/>
	<outline>
		<contour>
			<point x="331" y="607" type="curve" smooth="yes"/>
			<point x="364.33333" y="607"/>
			<point x="390" y="631.33333"/>
			<point x="390" y="670" type="curve" smooth="yes"/>
			<point x="390" y="703.33333"/>
			<point x="365.66667" y="727"/>
			<point x="331" y="727" type="curve" smooth="yes"/>
			<point x="296.33333" y="727"/>
			<point x="270" y="703.33333"/>
			<point x="270" y="670" type="curve" smooth="yes"/>
			<point x="270" y="635.33333"/>
			<point x="292.33333" y="607"/>
		</contour>
		<contour>
			<point x="111" y="607" type="curve" smooth="yes"/>
			<point x="144.33333" y="607"/>
			<point x="170" y="631.33333"/>
			<point x="170" y="670" type="curve" smooth="yes"/>
			<point x="170" y="703.33333"/>
			<point x="145.66667" y="727"/>
			<point x="111" y="727" type="curve" smooth="yes"/>
			<point x="76.33333" y="727"/>
			<point x="50" y="703.33333"/>
			<point x="50" y="670" type="curve" smooth="yes"/>
			<point x="50" y="635.33333"/>
			<point x="72.33333" y="607"/>
		</contour>
	</outline>
</glyph>
<glyph name="tilde" format="2">
	<advance width="402"/>
	<unicode hex="02DC"/>
	<anchor x="195" y="510" name="_top"/>
	<outline>
		<contour>
			<point x="272" y="605" type="curve" smooth="yes"/>
			<point x="345" y="605"/>
			<point x="385" y="666"/>
			<point x="385" y="750" type="curve"/>
			<point x="336" y="750" type="line"/>
			<point x="330" y="713"/>
			<point x="308" y="690"/>
			<point x="273" y="690" type="curve" smooth="yes"/>
			<point x="227" y="690"/>
			<point x="185" y="752"/>
			<point x="112" y="752" type="curve" smooth="yes"/>
			<point x="49" y="752"/>
			<point x="9" y="691"/>
			<point x="9" y="607" type="curve"/>
			<point x="58" y="607" type="line"/>
			<point x="64" y="644"/>
			<point x="82" y="667"/>
			<point x="111" y="667" type="curve" smooth="yes"/>
			<point x="156" y="667"/>
			<point x="198" y="605"/>
		</contour>
	</outline>
</glyph>
<glyph name="quotedblleft" format="2">
	<advance width="410"/>
	<unicode hex="201C"/>
	<outline>
		<contour>
			<point x="300" y="456" type="curve" smooth="yes"/>
			<point x="341.33333" y="456"/>
			<point x="370" y="483.33333"/>
			<point x="370" y="526" type="curve" smooth="yes"/>
			<point x="370" y="574"/>
			<point x="315.33333" y="616.33333"/>
			<point x="250" y="579" type="curve"/>
			<point x="287" y="560" type="line"/>
			<point x="287" y="621.33333"/>
			<point x="335" y="690"/>
			<point x="359" y="726" type="curve"/>
			<point x="326" y="751" type="line"/>
			<point x="274" y="693.66667"/>
			<point x="230" y="619.66667"/>
			<point x="230" y="541" type="curve" smooth="yes"/>
			<point x="230" y="489"/>
			<point x="257.33333" y="456"/>
		</contour>
		<contour>
			<point x="130" y="456" type="curve" smooth="yes"/>
			<point x="171.33333" y="456"/>
			<point x="200" y="483.33333"/>
			<point x="200" y="526" type="curve" smooth="yes"/>
			<point x="200" y="574"/>
			<point x="145.33333" y="616.33333"/>
			<point x="80" y="579" type="curve"/>
			<point x="117" y="560" type="line"/>
			<point x="117" y="621.33333"/>
			<point x="165" y="690"/>
			<point x="189" y="726" type="curve"/>
			<point x="156" y="751" type="line"/>
			<point x="104" y="693.66667"/>
			<point x="60" y="619.66667"/>
			<point x="60" y="541" type="curve" smooth="yes"/>
			<point x="60" y="489"/>
			<point x="87.33333" y="456"/>
		</contour>
	</outline>
</glyph>
<glyph name="quotedblright" format="2">
	<advance width="410"/>
	<unicode hex="201D"/>
	<outline>
		<contour>
			<point x="254" y="485" type="line"/>
			<point x="306" y="542.33333"/>
			<point x="350" y="616.33333"/>
			<point x="350" y="695" type="curve" smooth="yes"/>
			<point x="350" y="747"/>
			<point x="322.66667" y="780"/>
			<point x="280" y="780" type="curve" smooth="yes"/>
			<point x="238.66667" y="780"/>
			<point x="210" y="752.66667"/>
			<point x="210" y="710" type="curve" smooth="yes"/>
			<point x="210" y="662"/>
			<point x="264.66667" y="619.66667"/>
			<point x="330" y="657" type="curve"/>
			<point x="293" y="676" type="line"/>
			<point x="293" y="614.66667"/>
			<point x="245" y="546"/>
			<point x="221" y="510" type="curve"/>
		</contour>
		<contour>
			<point x="84" y="485" type="line"/>
			<point x="136" y="542.33333"/>
			<point x="180" y="616.33333"/>
			<point x="180" y="695" type="curve" smooth="yes"/>
			<point x="180" y="747"/>
			<point x="152.66667" y="780"/>
			<point x="110" y="780" type="curve" smooth="yes"/>
			<point x="68.66667" y="780"/>
			<point x="40" y="752.66667"/>
			<point x="40" y="710" type="curve" smooth="yes"/>
			<point x="40" y="662"/>
			<point x="94.66667" y="619.66667"/>
			<point x="160" y="657" type="curve"/>
			<point x="123" y="676" type="line"/>
			<point x="123" y="614.66667"/>
			<point x="75" y="546"/>
			<point x="51" y="510" type="curve"/>
		</contour>
	</outline>
</glyph>
<glyph name="M.001" format="2">
	<advance width="753"/>
	<outline>
		<contour>
			<point x="60" y="0" type="line"/>
			<point x="150" y="0" type="line"/>
			<point x="155" y="10" type="line"/>
			<point x="150.02488" y="58.75622"/>
			<point x="147.11443" y="111.0199"/>
			<point x="146.26866" y="166.79104" type="curve" smooth="yes"/>
			<point x="145.42289" y="222.56219"/>
			<point x="145" y="313.63184"/>
			<point x="145" y="440" type="curve"/>
			<point x="127" y="618" type="line"/>
			<point x="114" y="609" type="line"/>
			<point x="169" y="425" type="line"/>
			<point x="325" y="0" type="line"/>
			<point x="442" y="0" type="line"/>
			<point x="577" y="433" type="line"/>
			<point x="630" y="609" type="line"/>
			<point x="617" y="618" type="line"/>
			<point x="603" y="440" type="line"/>
			<point x="603" y="313.63184"/>
			<point x="602.20398" y="222.68657"/>
			<point x="600.61194" y="167.16418" type="curve" smooth="yes"/>
			<point x="599.0199" y="111.64179"/>
			<point x="596.48259" y="59.25373"/>
			<point x="593" y="10" type="curve"/>
			<point x="598" y="0" type="line"/>
			<point x="698" y="0" type="line"/>
			<point x="703" y="10" type="line"/>
			<point x="694.04478" y="108.50746"/>
			<point x="693" y="186.9403"/>
			<point x="693" y="375" type="curve" smooth="yes"/>
			<point x="693" y="475.49751"/>
			<point x="693.04975" y="568.47761"/>
			<point x="703" y="664" type="curve"/>
			<point x="698" y="670" type="line"/>
			<point x="566" y="670" type="line"/>
			<point x="380" y="63" type="line"/>
			<point x="380" y="63" type="line"/>
			<point x="403" y="63" type="line"/>
			<point x="191" y="670" type="line"/>
			<point x="55" y="670" type="line"/>
			<point x="50" y="664" type="line"/>
			<point x="63.93035" y="568.47761"/>
			<point x="65" y="481.46766"/>
			<point x="65" y="375" type="curve" smooth="yes"/>
			<point x="65" y="186.9403"/>
			<point x="64.95025" y="108.50746"/>
			<point x="55" y="10" type="curve"/>
		</contour>
	</outline>
</glyph>
<glyph name="dieresis.cmb" format="2">
	<advance width="0"/>
	<outline>
		<contour>
			<point x="111" y="741" type="curve" smooth="yes"/>
			<point x="143.83582" y="741"/>
			<point x="170" y="765.19403"/>
			<point x="170" y="804" type="curve" smooth="yes"/>
			<point x="170" y="837.83085"/>
			<point x="145.82587" y="861"/>
			<point x="111" y="861" type="curve" smooth="yes"/>
			<point x="76.17413" y="861"/>
			<point x="50" y="837.83085"/>
			<point x="50" y="804" type="curve" smooth="yes"/>
			<point x="50" y="769.17413"/>
			<point x="72.19403" y="741"/>
		</contour>
		<contour>
			<point x="-109" y="741" type="curve" smooth="yes"/>
			<point x="-76.16418" y="741"/>
			<point x="-50" y="765.19403"/>
			<point x="-50" y="804" type="curve" smooth="yes"/>
			<point x="-50" y="837.83085"/>
			<point x="-74.17413" y="861"/>
			<point x="-109" y="861" type="curve" smooth="yes"/>
			<point x="-143.82587" y="861"/>
			<point x="-170" y="837.83085"/>
			<point x="-170" y="804" type="curve" smooth="yes"/>
			<point x="-170" y="769.17413"/>
			<point x="-147.80597" y="741"/>
		</contour>
	</outline>
</glyph>
<glyph name="tilde.cap" format="2">
	<advance width="616"/>
	<anchor x="311" y="650" name="_top"/>
	<outline>
		<contour>
			<point x="398" y="745" type="curve" smooth="yes"/>
			<point x="470" y="745"/>
			<point x="511" y="797"/>
			<point x="511" y="890" type="curve"/>
			<point x="462" y="890" type="line"/>
			<point x="455" y="847"/>
			<point x="437" y="830"/>
			<point x="399" y="830" type="curve" smooth="yes"/>
			<point x="353" y="830"/>
			<point x="311" y="892"/>
			<point x="222" y="892" type="curve" smooth="yes"/>
			<point x="156" y="892"/>
			<point x="119" y="840"/>
			<point x="119" y="747" type="curve"/>
			<point x="168" y="747" type="line"/>
			<point x="175" y="790"/>
			<point x="190" y="807"/>
			<point x="221" y="807" type="curve" smooth="yes"/>
			<point x="282" y="807"/>
			<point x="324" y="745"/>
		</contour>
	</outline>
</glyph>
<glyph name="tilde.cmb" format="2">
	<advance width="402"/>
	<outline>
		<contour>
			<point x="284" y="578" type="curve" smooth="yes"/>
			<point x="361.61194" y="578"/>
			<point x="390.94527" y="642.30348"/>
			<point x="380" y="703" type="curve"/>
			<point x="344" y="703" type="line"/>
			<point x="333.05473" y="674.14428"/>
			<point x="299.93532" y="664"/>
			<point x="287" y="664" type="curve" smooth="yes"/>
			<point x="258.64179" y="664"/>
			<point x="233.84328" y="671.33333"/>
			<point x="212.60448" y="686" type="curve" smooth="yes"/>
			<point x="191.36567" y="700.66667"/>
			<point x="163.83085" y="708"/>
			<point x="130" y="708" type="curve" smooth="yes"/>
			<point x="51.39303" y="708"/>
			<point x="17.04975" y="642.70149"/>
			<point x="27" y="583" type="curve"/>
			<point x="58" y="583" type="line"/>
			<point x="69.9403" y="614.8408"/>
			<point x="111.07463" y="623"/>
			<point x="126" y="623" type="curve" smooth="yes"/>
			<point x="156.84577" y="623"/>
			<point x="180.44279" y="615.5"/>
			<point x="196.79104" y="600.5" type="curve" smooth="yes"/>
			<point x="213.1393" y="585.5"/>
			<point x="242.20896" y="578"/>
		</contour>
	</outline>
</glyph>
